<svg version="1.2" xmlns="http://www.w3.org/2000/svg" viewBox="0 0 280 280" width="280" height="280">
	<title>kudu-consultant-logo-svg</title>
	<style>
		.s0 { fill: #f2f2f2 } 
		.s1 { fill: #cf3e6c } 
	</style>
	<path id="Layer" class="s0" d="m102.7 78.1c24.8-20 25-46.6 25-46.6h-25.1c-5.3 19.6-16.3 30.2-24.3 35.6l-0.2-0.1q-0.6-4.6-1.5-9.1-0.9-4.6-2.2-9.1-1.2-4.4-2.9-8.8-1.6-4.3-3.5-8.6h-25.4c0 0 28.7 42.4 0 94.2h25.3c0 0 7.9-13 10.3-34q1.2-0.4 2.4-0.9c7.6 3.5 20.7 12.6 26.8 35.1h25c0 0 0.5-28.4-29.7-47.7z"/>
	<path id="Layer" class="s0" d="m124.4 152c-2.1 3.5-3.5 8.5-5.6 14.8-1.7 5.2-4.6 13.7-3.7 24.1 0.8 11.3 3.9 11.5 5.5 23 0.9 6.1-1.4 13.9-6.6 20.5-5.7 7.2-14.1 9.4-21.8 10.8-5.8 1.1-20 3.2-33.7-3.4-12.1-5.8-18-12.3-21.9-19.5-10.5-19.1-7.1-40.4-6.1-46.6q0.5-3.1 1.3-6.1 0.8-3.1 1.9-6.1 1-3 2.3-5.9 1.3-2.8 2.9-5.6h26.2c-2.7 4-4.5 9.7-7.5 17.9-3.2 8.8-5 16.1-3.4 30.2q0.4 3.2 1.5 6.3 1 3 2.7 5.8 1.7 2.8 3.9 5.1 2.2 2.4 4.9 4.2c5.5 3.8 12.4 6.7 22 3 4.8-1.8 6-4.2 6.5-8.4 0.5-5.1-3.1-13.2-3.9-18.7-1.6-12.4-1.1-16.3 0.7-24.1 2.2-9 3.9-16.1 7.4-21.1 7.1-0.1 17.4-0.1 24.5-0.2z"/>
	<path id="Layer" class="s0" d="m158.9 32.5c2 3.5 3.5 8.5 5.6 14.8 1.7 5.2 4.5 13.7 3.7 24.1-0.8 11.3-3.9 11.5-5.6 23-0.9 6 1.5 13.9 6.7 20.5 5.6 7.1 14.1 9.4 21.7 10.8 5.9 1.1 20.1 3.1 33.8-3.4 12.1-5.8 18-12.4 21.9-19.5 10.5-19.2 7.1-40.5 6.1-46.6q-0.5-3.1-1.3-6.2-0.8-3.1-1.9-6-1-3-2.4-5.9-1.3-2.9-2.8-5.6l-26.3-0.1c2.7 4 4.6 9.8 7.6 17.9 3.2 8.8 5 16.2 3.4 30.2q-0.4 3.3-1.5 6.3-1.1 3.1-2.7 5.9-1.7 2.7-3.9 5.1-2.3 2.4-4.9 4.2c-5.5 3.8-12.4 6.6-22 3-4.8-1.8-6.1-4.2-6.5-8.4-0.5-5.1 3.1-13.2 3.8-18.7 1.7-12.5 1.2-16.3-0.7-24.1-2.1-9-3.8-16.1-7.3-21.2z"/>
	<path id="Layer" fill-rule="evenodd" class="s1" d="m235.8 242.9q0.1 0.2 0.1 0.4 0.1 0.3 0 0.5-0.1 0.2-0.2 0.3-0.2 0.2-0.4 0.2c-20.1 4.6-32.4 2.3-41.4 0.4-11-2.2-23.5-4.7-34.2-15.5q-2.6-2.5-4.7-5.3-2.2-2.8-3.9-5.9-1.8-3.1-3-6.5-1.2-3.3-1.9-6.8c-0.4-1.9-3.8-20.7 8.4-36.5 7.2-9.3 16.2-12.8 22.1-15.1 9.9-3.9 19.7-4.1 38.9-4.3 8.6-0.1 12.8 0.1 18.2 0.3q0.2 0 0.4 0.2 0.2 0.1 0.3 0.3 0.1 0.2 0.1 0.4 0 0.2-0.2 0.4c-1.4 2.5-3.2 5.9-5.1 10-4.4 9.4-5.3 17.7-6.5 28.4-1.8 15.4 1.7 26 3.1 32 1.7 7.6 6.2 17.6 9.9 22.1zm-34.9-56q0.2-3.5 0.8-6.9 0.6-3.4 1.4-6.8 0.9-3.4 2.1-6.6 0.1-0.2 0.1-0.4 0-0.2-0.1-0.3-0.1-0.2-0.3-0.3-0.1-0.1-0.3-0.2-2.2-0.4-4.4-0.5-2.3-0.1-4.5 0.1-2.2 0.3-4.4 0.8-2.2 0.6-4.2 1.4c-2.4 1-14.3 6.5-17.2 19.8-0.3 1.4-3.4 11.9 1.4 21.9 3.2 6.4 5.6 8.4 12.8 12.3 4.5 2.4 18.8 4.4 22.3 4.4q0.2 0 0.4-0.1 0.2-0.1 0.3-0.3 0.1-0.2 0.1-0.4 0-0.2 0-0.4-0.1-0.2-0.3-0.5-1.4-3.3-2.5-6.8-1.1-3.4-1.9-6.9-0.7-3.6-1.2-7.1-0.4-3.6-0.5-7.2 0-1 0-2-0.1-3.5 0.1-7z"/>
</svg>